<svg width="39" height="40" viewBox="0 0 39 40" fill="none" xmlns="http://www.w3.org/2000/svg">
<path d="M0 28.1731C3.81667 18.6928 7.51567 9.50757 11.3443 0C11.6751 0.576423 11.8627 0.830527 11.977 1.11362C15.7118 10.4012 19.4432 19.6888 23.1541 28.9849C23.2957 29.3379 23.3639 29.829 23.2343 30.165C22.0234 33.2739 20.7615 36.3624 19.5063 39.4543C19.4551 39.5788 19.3204 39.6692 19.0202 40C16.5201 33.8026 14.0831 27.7655 11.5114 21.3942C11.1703 22.0388 10.9589 22.3662 10.8139 22.721C10.1812 24.2643 9.59113 25.8265 8.92773 27.3579C8.78789 27.6819 8.41441 28.1322 8.13984 28.139C5.534 28.1987 2.92475 28.1748 0 28.1748V28.1731Z" fill="#111111"/>
<path d="M27.0287 0.146484C30.796 9.5125 34.4984 18.7165 38.3048 28.1814C36.8228 28.1814 35.6256 28.1814 34.4285 28.1814C33.1392 28.1814 31.8482 28.1593 30.5606 28.1917C29.9586 28.207 29.6141 28.0433 29.372 27.4311C27.2112 21.9687 25.0061 16.5234 22.8369 11.0644C22.709 10.7421 22.651 10.2936 22.7721 9.98831C24.0034 6.84868 25.279 3.7244 26.5478 0.600119C26.5853 0.506322 26.7047 0.446634 27.027 0.146484H27.0287Z" fill="#111111"/>
</svg>
