<svg width="44" height="40" viewBox="0 0 44 40" fill="none" xmlns="http://www.w3.org/2000/svg">
<path d="M6.68674 27.1652C11.6105 18.0771 16.4263 9.18932 21.4051 0C26.5467 9.16951 31.5518 18.0969 36.6406 27.1696C34.6751 28.1843 32.78 29.1615 30.8871 30.141C28.0742 31.5959 25.2701 33.0684 22.4373 34.4836C21.9905 34.7059 21.284 34.8974 20.9076 34.7015C16.2458 32.2848 11.6215 29.7932 6.68894 27.163L6.68674 27.1652ZM26.769 23.2891C25.1292 20.3618 23.5885 17.6171 21.9267 14.6479C20.2253 17.6149 18.6384 20.3816 16.9744 23.2803C18.5657 24.152 20.0184 24.9774 21.5041 25.7323C21.7572 25.86 22.2106 25.7939 22.4858 25.6509C23.8812 24.9201 25.2481 24.1365 26.7712 23.2891H26.769Z" fill="#111111"/>
<path d="M0 39.9951C1.97213 36.5218 3.77919 33.3369 5.64786 30.042C7.86651 31.235 10.0081 32.3839 12.2664 33.5967C11.2671 35.5798 10.3317 37.4925 9.33019 39.37C9.17392 39.6627 8.7161 39.9621 8.39255 39.9687C5.69848 40.0171 3.00221 39.9951 0 39.9951Z" fill="#111111"/>
<path d="M43.5606 39.537C40.5474 39.537 37.8467 39.5568 35.1482 39.5106C34.8247 39.504 34.3757 39.2179 34.2062 38.9295C33.1189 37.0917 32.0954 35.2164 30.9839 33.2355C33.35 32.0601 35.6149 30.9332 37.9964 29.749C39.8276 32.9691 41.6083 36.1012 43.5606 39.537Z" fill="#111111"/>
<path d="M26.7689 23.2892C25.2458 24.1366 23.879 24.9202 22.4835 25.6509C22.2106 25.794 21.755 25.8622 21.5018 25.7324C20.0161 24.9774 18.5635 24.152 16.9721 23.2804C18.6361 20.3816 20.2208 17.6149 21.9244 14.6479C23.5884 17.6171 25.127 20.3618 26.7667 23.2892H26.7689Z" fill="#181818"/>
</svg>
