<svg width="39" height="40" viewBox="0 0 39 40" fill="none" xmlns="http://www.w3.org/2000/svg">
<path d="M12.7222 18.1362C16.6463 22.0729 20.3131 25.6373 23.844 29.3334C25.8458 31.4273 26.032 34.3725 24.618 36.8324C23.2876 39.15 20.5683 40.3779 17.8407 39.8968C15.2302 39.4366 12.8958 37.2925 12.7828 34.5042C12.5695 29.2016 12.7201 23.8844 12.7201 18.1362H12.7222Z" fill="#111111"/>
<path d="M25.4756 21.6168C21.5222 17.7366 17.6671 14.1345 14.04 10.3171C12.1448 8.32365 12.1992 5.2132 13.6802 2.93319C15.1653 0.644806 17.9202 -0.455457 20.5809 0.176254C23.2228 0.803781 25.3668 3.03777 25.4379 5.76333C25.5739 10.9739 25.4777 16.1908 25.4777 21.6168H25.4756Z" fill="#111111"/>
<path d="M0 6.51025H6.18742V33.5002H0V6.51025Z" fill="#111111"/>
<path d="M31.9661 6.51025H38.1807V33.4542H31.9661V6.51025Z" fill="#111111"/>
</svg>
