<svg width="143" height="36" viewBox="0 0 143 36" fill="none" xmlns="http://www.w3.org/2000/svg">
<g clip-path="url(#clip0_336_1017)">
<path d="M31.0985 12.9747L22.0546 22.0553L0.801819 0.758148H18.879L31.0985 12.9747Z" fill="#E3FF04"/>
<path d="M12.8748 12.8713V36L0 24.4357L12.8748 12.8713Z" fill="#E3FF04"/>
<path d="M44 0L31.1252 12.884V35.8571L44 23.1464C43.7315 22.8809 44 0.000506785 44 0.000506785V0Z" fill="#E3FF04"/>
</g>
<path d="M53.344 27V9.72H56.824L63.088 17.184L69.328 9.72H72.832V27H69.64V14.328L63.088 22.128L56.512 14.352V27H53.344ZM78.3696 27C77.7616 27 77.2016 26.848 76.6896 26.544C76.1936 26.24 75.7936 25.84 75.4896 25.344C75.2016 24.848 75.0576 24.296 75.0576 23.688V13.08H78.2016V23.568C78.2016 23.648 78.2256 23.72 78.2736 23.784C78.3376 23.832 78.4096 23.856 78.4896 23.856H85.7616C85.8416 23.856 85.9056 23.832 85.9536 23.784C86.0176 23.72 86.0496 23.648 86.0496 23.568V13.08H89.1936V23.688C89.1936 24.296 89.0416 24.848 88.7376 25.344C88.4496 25.84 88.0576 26.24 87.5616 26.544C87.0656 26.848 86.5056 27 85.8816 27H78.3696ZM90.7501 27V23.568L100.254 16.224H90.7501V13.08H104.886V16.512L95.3821 23.856H104.886V27H90.7501ZM106.98 27V13.08H110.124V27H106.98ZM106.98 11.688V8.52H110.124V11.688H106.98ZM115.624 27C115.016 27 114.464 26.848 113.968 26.544C113.472 26.24 113.072 25.84 112.768 25.344C112.464 24.848 112.312 24.296 112.312 23.688V8.496H115.48V23.568C115.48 23.648 115.504 23.72 115.552 23.784C115.616 23.832 115.688 23.856 115.768 23.856H118.432V27H115.624ZM123.137 27C122.529 27 121.977 26.848 121.481 26.544C120.985 26.24 120.585 25.84 120.281 25.344C119.977 24.848 119.825 24.296 119.825 23.688V8.496H122.993V23.568C122.993 23.648 123.017 23.72 123.065 23.784C123.129 23.832 123.201 23.856 123.281 23.856H125.945V27H123.137ZM130.602 27C129.994 27 129.434 26.848 128.922 26.544C128.426 26.24 128.026 25.84 127.722 25.344C127.434 24.848 127.29 24.296 127.29 23.688V18.456H138.282V16.512C138.282 16.432 138.25 16.368 138.186 16.32C138.138 16.256 138.074 16.224 137.994 16.224H127.29V13.08H138.114C138.722 13.08 139.274 13.232 139.77 13.536C140.282 13.84 140.682 14.24 140.97 14.736C141.274 15.232 141.426 15.784 141.426 16.392V27H130.602ZM130.722 23.856H138.282V21.288H130.434V23.568C130.434 23.648 130.458 23.72 130.506 23.784C130.57 23.832 130.642 23.856 130.722 23.856Z" fill="white"/>
<defs>
<clipPath id="clip0_336_1017">
<rect width="44" height="36" fill="white"/>
</clipPath>
</defs>
</svg>
