<svg width="30" height="30" viewBox="0 0 30 30" fill="none" xmlns="http://www.w3.org/2000/svg">
<g clip-path="url(#clip0_311_928)">
<path d="M29.2438 25.1656C29.2438 25.1656 27.2429 23.1654 26.0399 21.963L21.9727 26.0303L25.1777 29.2339C26.6178 30.6782 28.4864 29.753 29.1232 29.1142C30.0922 28.1541 30.4298 26.3553 29.2454 25.1672C29.2449 25.1667 29.2445 25.1662 29.2438 25.1656Z" fill="#E3FF04"/>
<path d="M25.3355 16.6401C24.3579 15.6626 22.7729 15.6626 21.7954 16.6401L16.6492 21.7863C15.6716 22.7639 15.6716 24.3489 16.6492 25.3264C17.6267 26.304 19.2115 26.304 20.1891 25.3264L25.3355 20.18C26.313 19.2025 26.313 17.6177 25.3355 16.6401Z" fill="#E3FF04"/>
<path d="M0.757145 25.1656C0.756458 25.1662 0.756 25.1667 0.755543 25.1669C-0.428921 26.3553 -0.09132 28.1538 0.877765 29.1142C1.51451 29.753 3.38311 30.6779 4.82323 29.2337L8.02826 26.03L3.96103 21.963C2.75803 23.1654 0.757145 25.1656 0.757145 25.1656Z" fill="#E3FF04"/>
<path d="M7.80716 13.7569L13.7569 7.80716L6.20727 0.257492C6.04271 0.0924682 5.81909 0 5.58586 0H0.878906C0.393448 0 0 0.393448 0 0.878906V5.58586C0 5.81909 0.0924682 6.04271 0.257492 6.20727L7.80716 13.7569Z" fill="#E3FF04"/>
<path d="M30.0008 5.58586V0.878906C30.0008 0.393448 29.6073 0 29.1219 0H24.4149C24.1817 0 23.9583 0.0924682 23.7935 0.257492L9.05078 15L15.0008 20.95L29.7433 6.2075C29.9083 6.04271 30.0008 5.81909 30.0008 5.58586Z" fill="#E3FF04"/>
<path d="M8.20492 16.6401C7.22737 15.6626 5.64236 15.6626 4.66481 16.6401C3.68725 17.6177 3.68725 19.2025 4.66481 20.18L9.81098 25.3264C10.7885 26.304 12.3735 26.304 13.3511 25.3264C14.3287 24.3489 14.3287 22.7639 13.3511 21.7863L8.20492 16.6401Z" fill="#E3FF04"/>
</g>
<defs>
<clipPath id="clip0_311_928">
<rect width="30" height="30" fill="white"/>
</clipPath>
</defs>
</svg>
