<svg width="20" height="30" viewBox="0 0 20 30" fill="none" xmlns="http://www.w3.org/2000/svg">
<path d="M16.5781 0H11.7263C11.4253 0 11.1364 0.0514984 10.8673 0.14534V4.85092C11.9606 5.21942 12.7498 6.25305 12.7498 7.46887V10.2933C12.7498 11.5084 11.9606 12.5425 10.8673 12.9105V15C10.8673 15.4852 10.4734 15.8789 9.98837 15.8789C9.50314 15.8789 9.10947 15.4852 9.10947 15V12.9105C8.0161 12.5425 7.22691 11.5084 7.22691 10.2933V7.46887C7.22691 6.25305 8.0161 5.21942 9.10947 4.85092V0.14534C8.84007 0.0514984 8.55122 0 8.25047 0H3.39841C1.85872 0 0.636719 1.24947 0.636719 2.76169V20.6483C0.636719 25.8048 4.83189 30 9.98837 30C15.1449 30 19.3398 25.8048 19.3398 20.6483V2.76169C19.3398 1.222 18.0903 0 16.5781 0ZM12.8125 24.8222H7.1642C6.67874 24.8222 6.28529 24.4288 6.28529 23.9433C6.28529 23.4579 6.67874 23.0644 7.1642 23.0644H12.8125C13.298 23.0644 13.6915 23.4579 13.6915 23.9433C13.6915 24.4288 13.298 24.8222 12.8125 24.8222Z" fill="#E3FF04"/>
</svg>
