<svg width="30" height="30" viewBox="0 0 30 30" fill="none" xmlns="http://www.w3.org/2000/svg">
<g clip-path="url(#clip0_311_1139)">
<path fill-rule="evenodd" clip-rule="evenodd" d="M29.9002 19.3084L27.8893 10.7629C27.3478 8.46084 25.2258 6.09375 21.9944 6.09375H8.0059C5.64086 6.09375 2.8508 7.61741 2.11082 10.7629L0.099872 19.3084C-0.44601 21.6282 1.31477 23.8536 3.70086 23.8536C4.71481 23.8536 5.66856 23.3134 6.18972 22.4444L7.73879 19.863C8.00361 19.4213 8.48792 19.1471 9.0029 19.1471H20.997C21.512 19.1471 21.9965 19.4215 22.2613 19.8633L23.8102 22.4441C24.3316 23.3134 25.2853 23.8536 26.3004 23.8536C28.6828 23.8536 30.4466 21.6305 29.9002 19.3084ZM11.235 13.4992H10.2311V14.5031C10.2311 14.9883 9.83763 15.3818 9.35218 15.3818C8.86695 15.3818 8.4735 14.9883 8.4735 14.5031V13.4992H7.46963C6.9844 13.4992 6.59095 13.1058 6.59095 12.6205C6.59095 12.1351 6.9844 11.7416 7.46963 11.7416H8.4735V10.7378C8.4735 10.2525 8.86695 9.85908 9.35218 9.85908C9.83763 9.85908 10.2311 10.2525 10.2311 10.7378V11.7416H11.235C11.7202 11.7416 12.1136 12.1351 12.1136 12.6205C12.1136 13.1058 11.7202 13.4992 11.235 13.4992ZM18.7652 13.4992C18.2802 13.4992 17.8865 13.1055 17.8865 12.6205C17.8865 12.1353 18.2804 11.7416 18.7652 11.7416C19.2504 11.7416 19.6441 12.1353 19.6441 12.6205C19.6441 13.1055 19.2504 13.4992 18.7652 13.4992ZM20.6479 15.3818C20.1629 15.3818 19.769 14.9881 19.769 14.5031C19.769 14.0181 20.1629 13.6242 20.6479 13.6242C21.1329 13.6242 21.5266 14.0181 21.5266 14.5031C21.5266 14.9881 21.1329 15.3818 20.6479 15.3818ZM20.6479 11.6167C20.1629 11.6167 19.769 11.223 19.769 10.7378C19.769 10.2528 20.1629 9.85908 20.6479 9.85908C21.1329 9.85908 21.5266 10.2528 21.5266 10.7378C21.5266 11.223 21.1329 11.6167 20.6479 11.6167ZM22.5305 13.4992C22.0455 13.4992 21.6516 13.1055 21.6516 12.6205C21.6516 12.1353 22.0455 11.7416 22.5305 11.7416C23.0155 11.7416 23.4092 12.1353 23.4092 12.6205C23.4092 13.1055 23.0155 13.4992 22.5305 13.4992Z" fill="#E3FF04"/>
</g>
<defs>
<clipPath id="clip0_311_1139">
<rect width="30" height="30" fill="white"/>
</clipPath>
</defs>
</svg>
