<svg width="30" height="30" viewBox="0 0 30 30" fill="none" xmlns="http://www.w3.org/2000/svg">
<g clip-path="url(#clip0_311_911)">
<path d="M27.1757 16.8828C27.1757 18.4081 25.9393 19.6445 24.414 19.6445C22.8888 19.6445 21.6523 18.4081 21.6523 16.8828C21.6523 15.3575 22.8888 14.1211 24.414 14.1211C25.9393 14.1211 27.1757 15.3575 27.1757 16.8828Z" fill="#E3FF04"/>
<path d="M17.8243 24.4766H8.41013C6.88509 24.4766 5.64844 25.713 5.64844 27.2383C5.64844 28.7636 6.88509 30 8.41013 30H17.8243C19.3495 30 20.586 28.7636 20.586 27.2383C20.586 25.713 19.3495 24.4766 17.8243 24.4766Z" fill="#E3FF04"/>
<path d="M3.71475 0H0.878906C0.393448 0 0 0.393448 0 0.878906V2.46872C0 2.95418 0.393448 3.34763 0.878906 3.34763H3.71475C4.20021 3.34763 4.59366 2.95418 4.59366 2.46872V0.878906C4.59366 0.393448 4.20021 0 3.71475 0Z" fill="#E3FF04"/>
<path d="M7.23047 3.34763H10.0665C10.552 3.34763 10.9454 2.95418 10.9454 2.46872V0.878906C10.9454 0.393448 10.552 0 10.0665 0H7.23047C6.74524 0 6.35156 0.393448 6.35156 0.878906V2.46872C6.35156 2.95418 6.74524 3.34763 7.23047 3.34763Z" fill="#E3FF04"/>
<path d="M13.582 3.34763H16.4179C16.9033 3.34763 17.2968 2.95418 17.2968 2.46872V0.878906C17.2968 0.393448 16.9033 0 16.4179 0H13.582C13.0966 0 12.7031 0.393448 12.7031 0.878906V2.46872C12.7031 2.95418 13.0966 3.34763 13.582 3.34763Z" fill="#E3FF04"/>
<path d="M19.9336 3.34763H22.7697C23.2549 3.34763 23.6486 2.95418 23.6486 2.46872V0.878906C23.6486 0.393448 23.2549 0 22.7697 0H19.9336C19.4481 0 19.0547 0.393448 19.0547 0.878906V2.46872C19.0547 2.95418 19.4481 3.34763 19.9336 3.34763Z" fill="#E3FF04"/>
<path d="M29.121 0H26.2852C25.7997 0 25.4062 0.393448 25.4062 0.878906V2.46872C25.4062 2.95418 25.7997 3.34763 26.2852 3.34763H29.121C29.6065 3.34763 29.9999 2.95418 29.9999 2.46872V0.878906C29.9999 0.393448 29.6065 0 29.121 0Z" fill="#E3FF04"/>
<path d="M3.71475 5.10544H0.878906C0.393448 5.10544 0 5.49889 0 5.98434V7.57416C0 8.05962 0.393448 8.45306 0.878906 8.45306H3.71475C4.20021 8.45306 4.59366 8.05962 4.59366 7.57416V5.98434C4.59366 5.49889 4.20021 5.10544 3.71475 5.10544Z" fill="#E3FF04"/>
<path d="M7.23047 8.45306H10.0665C10.552 8.45306 10.9454 8.05962 10.9454 7.57416V5.98434C10.9454 5.49889 10.552 5.10544 10.0665 5.10544H7.23047C6.74524 5.10544 6.35156 5.49889 6.35156 5.98434V7.57416C6.35156 8.05962 6.74524 8.45306 7.23047 8.45306Z" fill="#E3FF04"/>
<path d="M13.582 8.45306H16.4179C16.9033 8.45306 17.2968 8.05962 17.2968 7.57416V5.98434C17.2968 5.49889 16.9033 5.10544 16.4179 5.10544H13.582C13.0966 5.10544 12.7031 5.49889 12.7031 5.98434V7.57416C12.7031 8.05962 13.0966 8.45306 13.582 8.45306Z" fill="#E3FF04"/>
<path d="M19.9336 8.45306H22.7697C23.2549 8.45306 23.6486 8.05962 23.6486 7.57416V5.98434C23.6486 5.49889 23.2549 5.10544 22.7697 5.10544H19.9336C19.4481 5.10544 19.0547 5.49889 19.0547 5.98434V7.57416C19.0547 8.05962 19.4481 8.45306 19.9336 8.45306Z" fill="#E3FF04"/>
<path d="M29.121 5.10544H26.2852C25.7997 5.10544 25.4062 5.49889 25.4062 5.98434V7.57416C25.4062 8.05962 25.7997 8.45306 26.2852 8.45306H29.121C29.6065 8.45306 29.9999 8.05962 29.9999 7.57416V5.98434C29.9999 5.49889 29.6065 5.10544 29.121 5.10544Z" fill="#E3FF04"/>
<path d="M3.71475 10.2109H0.878906C0.393448 10.2109 0 10.6043 0 11.0898V12.6796C0 13.1651 0.393448 13.5585 0.878906 13.5585H3.71475C4.20021 13.5585 4.59366 13.1651 4.59366 12.6796V11.0898C4.59366 10.6043 4.20021 10.2109 3.71475 10.2109Z" fill="#E3FF04"/>
<path d="M13.582 13.5585H16.4179C16.9033 13.5585 17.2968 13.1651 17.2968 12.6796V11.0898C17.2968 10.6043 16.9033 10.2109 16.4179 10.2109H13.582C13.0966 10.2109 12.7031 10.6043 12.7031 11.0898V12.6796C12.7031 13.1651 13.0966 13.5585 13.582 13.5585Z" fill="#E3FF04"/>
</g>
<defs>
<clipPath id="clip0_311_911">
<rect width="30" height="30" fill="white"/>
</clipPath>
</defs>
</svg>
