<svg width="30" height="30" viewBox="0 0 30 30" fill="none" xmlns="http://www.w3.org/2000/svg">
<g clip-path="url(#clip0_311_1573)">
<path d="M7.94929 15.918H0.878906C0.393448 15.918 0 16.3115 0 16.7969V23.8673C0 24.3526 0.393448 24.7462 0.878906 24.7462H7.94929C8.43452 24.7462 8.8282 24.3526 8.8282 23.8673V16.7969C8.8282 16.3115 8.43452 15.918 7.94929 15.918ZM5.67535 21.5934C6.01868 21.9367 6.01868 22.4931 5.67535 22.8362C5.33226 23.1795 4.77562 23.1795 4.43253 22.8362L2.54951 20.9534C2.20642 20.6103 2.20642 20.0539 2.54951 19.7106L4.4323 17.8278C4.77562 17.4845 5.33203 17.4845 5.67535 17.8278C6.01868 18.1709 6.01868 18.7276 5.67535 19.0706L4.41399 20.332L5.67535 21.5934Z" fill="#E3FF04"/>
<path d="M18.535 15.918H11.4648C10.9794 15.918 10.5859 16.3115 10.5859 16.7969V23.8673C10.5859 24.3526 10.9794 24.7462 11.4648 24.7462H18.5352C19.0205 24.7462 19.4141 24.3526 19.4141 23.8673V16.7969C19.4139 16.3115 19.0205 15.918 18.535 15.918ZM17.5041 20.3137L15.6213 22.1965C15.2782 22.5398 14.7218 22.5398 14.3785 22.1965L12.4957 20.3137C12.1524 19.9704 12.1524 19.414 12.4957 19.0706C12.8388 18.7276 13.3952 18.7276 13.7386 19.0706L14.9999 20.332L16.2613 19.0706C16.6046 18.7276 17.161 18.7276 17.5041 19.0706C17.8474 19.414 17.8474 19.9706 17.5041 20.3137Z" fill="#E3FF04"/>
<path d="M18.535 5.33203H11.4648C10.9794 5.33203 10.5859 5.72548 10.5859 6.21094V13.2813C10.5859 13.7666 10.9794 14.1602 11.4648 14.1602H18.5352C19.0205 14.1602 19.4141 13.7666 19.4141 13.2813V6.21094C19.4139 5.72548 19.0205 5.33203 18.535 5.33203ZM17.5041 11.0074C17.161 11.3507 16.6046 11.3507 16.2613 11.0074L14.9999 9.74625L13.7386 11.0074C13.3952 11.3507 12.8388 11.3507 12.4957 11.0074C12.1524 10.6643 12.1524 10.1077 12.4957 9.76456L14.3785 7.88177C14.7216 7.53845 15.278 7.53845 15.6213 7.88177L17.5041 9.76456C17.8474 10.1077 17.8474 10.6643 17.5041 11.0074Z" fill="#E3FF04"/>
<path d="M29.1212 15.918H22.0508C21.5656 15.918 21.1719 16.3115 21.1719 16.7969V23.8673C21.1719 24.3526 21.5656 24.7462 22.0508 24.7462H29.1212C29.6066 24.7462 30.0001 24.3526 30.0001 23.8673V16.7969C30.0001 16.3115 29.6066 15.918 29.1212 15.918ZM27.4506 20.9534L25.5678 22.8362C25.2245 23.1795 24.668 23.1795 24.3247 22.8362C23.9814 22.4931 23.9814 21.9367 24.3247 21.5934L25.5861 20.332L24.3247 19.0706C23.9814 18.7273 23.9814 18.1709 24.3247 17.8278C24.668 17.4845 25.2245 17.4845 25.5678 17.8278L27.4506 19.7106C27.7937 20.0539 27.7937 20.6103 27.4506 20.9534Z" fill="#E3FF04"/>
</g>
<defs>
<clipPath id="clip0_311_1573">
<rect width="30" height="30" fill="white"/>
</clipPath>
</defs>
</svg>
