<svg width="30" height="30" viewBox="0 0 30 30" fill="none" xmlns="http://www.w3.org/2000/svg">
<path d="M29.1447 9.99962C29.0204 9.64874 28.6885 9.41414 28.3161 9.41414H22.0605C21.6666 9.41414 21.2961 9.26056 21.018 8.9827C20.7433 8.70781 20.5859 8.32764 20.5859 7.93945V1.68388C20.5859 1.31149 20.3513 0.979385 20.0002 0.855331C18.3966 0.287704 16.7143 0 15 0C13.2857 0 11.6034 0.287704 9.99985 0.855331C9.64874 0.979385 9.41414 1.31149 9.41414 1.68388V7.93945C9.41414 8.32764 9.25667 8.70781 8.9827 8.98201C8.70392 9.26056 8.33336 9.41414 7.93945 9.41414H1.68388C1.31149 9.41414 0.979385 9.64874 0.855331 9.99962C0.287704 11.6032 0 13.2857 0 15C0 16.7143 0.287704 18.3968 0.855331 20.0004C0.979614 20.3513 1.31149 20.5859 1.68388 20.5859H7.93945C8.33336 20.5859 8.70392 20.7394 8.98201 21.0173C9.25667 21.2922 9.41414 21.6724 9.41414 22.0605V28.3161C9.41414 28.6885 9.64874 29.0204 9.99985 29.1447C11.6034 29.7123 13.2857 30 15 30C16.7143 30 18.3966 29.7123 20.0002 29.1447C20.3513 29.0206 20.5859 28.6885 20.5859 28.3161V22.0605C20.5859 21.6724 20.7433 21.2922 21.0173 21.018C21.2961 20.7394 21.6666 20.5859 22.0605 20.5859H28.3161C28.6885 20.5859 29.0206 20.3513 29.1447 20.0004C29.7123 18.3968 30 16.7143 30 15C30 13.2857 29.7123 11.6032 29.1447 9.99962ZM6.20728 16.2614C6.5506 16.6047 6.5506 17.1611 6.20728 17.5042C6.03584 17.6759 5.81085 17.7617 5.58586 17.7617C5.36087 17.7617 5.13611 17.6759 4.96445 17.5042L3.08167 15.6214C2.73834 15.2781 2.73834 14.7217 3.08167 14.3786L4.96445 12.4958C5.30777 12.1525 5.86418 12.1525 6.2075 12.4958C6.5506 12.8389 6.5506 13.3953 6.2075 13.7386L4.94614 15L6.20728 16.2614ZM17.5042 25.0356L15.6214 26.9183C15.4498 27.09 15.225 27.1758 15 27.1758C14.775 27.1758 14.55 27.09 14.3786 26.9183L12.4958 25.0356C12.1525 24.6922 12.1525 24.1358 12.4958 23.7925C12.8389 23.4494 13.3953 23.4494 13.7386 23.7925L15 25.0539L16.2614 23.7925C16.6045 23.4494 17.1611 23.4494 17.5042 23.7925C17.8475 24.1358 17.8475 24.6922 17.5042 25.0356ZM17.5042 6.2075C17.3328 6.37894 17.1078 6.465 16.8828 6.465C16.658 6.465 16.433 6.37917 16.2614 6.2075L15 4.94614L13.7386 6.2075C13.3955 6.5506 12.8389 6.5506 12.4958 6.2075C12.1525 5.86418 12.1525 5.30777 12.4958 4.96445L14.3786 3.08167C14.7217 2.73834 15.2783 2.73834 15.6214 3.08167L17.5044 4.96445C17.8475 5.30777 17.8475 5.86418 17.5042 6.2075ZM26.9183 15.6214L25.0356 17.5042C24.8639 17.6759 24.6389 17.7617 24.4141 17.7617C24.1891 17.7617 23.9642 17.6759 23.7927 17.5042C23.4494 17.1611 23.4494 16.6047 23.7927 16.2614L25.0539 15L23.7927 13.7386C23.4494 13.3953 23.4494 12.8389 23.7927 12.4958C24.1358 12.1525 24.6922 12.1525 25.0356 12.4958L26.9183 14.3786C27.2617 14.7217 27.2617 15.2783 26.9183 15.6214Z" fill="#E3FF04"/>
</svg>
