<svg width="30" height="30" viewBox="0 0 30 30" fill="none" xmlns="http://www.w3.org/2000/svg">
<g clip-path="url(#clip0_311_1099)">
<path fill-rule="evenodd" clip-rule="evenodd" d="M15.8788 0.768585C15.8788 0.793076 15.8774 0.817566 15.877 0.842056C15.8774 0.854416 15.8788 0.866547 15.8788 0.878906V0.768585Z" fill="#E3FF04"/>
<path fill-rule="evenodd" clip-rule="evenodd" d="M11.2343 7.76665H18.7655C19.3207 7.76665 19.7693 8.2164 19.7693 8.77052C19.7693 9.32419 19.3214 9.7744 18.7655 9.7744H16.8827C15.3398 9.7744 14.121 11.0271 14.121 12.5361V13.3047H15.8788V12.5361C15.8788 11.982 16.3274 11.5322 16.8827 11.5322H18.7655C20.3086 11.5322 21.5272 10.2793 21.5272 8.77052C21.5272 7.23152 20.2786 6.00883 18.7655 6.00883H11.2343C10.6791 6.00883 10.2305 5.55908 10.2305 5.00496C10.2305 4.45129 10.6784 4.00108 11.2343 4.00108H12.6463C14.4041 4.00108 15.8376 2.59048 15.877 0.842056C15.8575 0.373764 15.4728 0 14.9999 0C14.5145 0 14.121 0.393448 14.121 0.878906V0.768585C14.121 1.58157 13.4595 2.24327 12.6463 2.24327H11.2343C9.69145 2.24327 8.47266 3.49594 8.47266 5.00496C8.47266 6.5451 9.72258 7.76665 11.2343 7.76665Z" fill="#E3FF04"/>
<path fill-rule="evenodd" clip-rule="evenodd" d="M22.5311 15.0625H7.46887C3.3506 15.0625 0 18.4129 0 22.5311C0 26.6494 3.3506 30 7.46887 30C8.90762 30 10.3054 29.5889 11.5107 28.8114C12.524 28.1577 13.3605 27.274 13.9552 26.2345H16.0448C16.6395 27.274 17.476 28.1577 18.4893 28.8114C19.6946 29.5889 21.0924 30 22.5311 30C26.6494 30 30 26.6494 30 22.5311C30 18.4129 26.6494 15.0625 22.5311 15.0625ZM9.35165 23.41H8.34778V24.4139C8.34778 24.8994 7.9541 25.2928 7.46887 25.2928C6.98341 25.2928 6.58997 24.8994 6.58997 24.4139V23.41H5.58586C5.10063 23.41 4.70695 23.0166 4.70695 22.5311C4.70695 22.0459 5.10063 21.6522 5.58586 21.6522H6.58974V20.6484C6.58974 20.1631 6.98341 19.7695 7.46864 19.7695C7.9541 19.7695 8.34755 20.1631 8.34755 20.6484V21.6522H9.35165C9.83688 21.6522 10.2306 22.0459 10.2306 22.5311C10.2306 23.0166 9.83688 23.41 9.35165 23.41ZM20.1778 23.41C19.6928 23.41 19.2989 23.0164 19.2989 22.5311C19.2989 22.0461 19.6928 21.6522 20.1778 21.6522C20.6628 21.6522 21.0567 22.0461 21.0567 22.5311C21.0567 23.0164 20.6628 23.41 20.1778 23.41ZM22.5311 25.7636C22.0461 25.7636 21.6522 25.37 21.6522 24.8847C21.6522 24.3997 22.0461 24.0058 22.5311 24.0058C23.0164 24.0058 23.41 24.3997 23.41 24.8847C23.41 25.37 23.0164 25.7636 22.5311 25.7636ZM22.5311 21.0567C22.0461 21.0567 21.6522 20.663 21.6522 20.1778C21.6522 19.6926 22.0461 19.2989 22.5311 19.2989C23.0164 19.2989 23.41 19.6926 23.41 20.1778C23.41 20.663 23.0164 21.0567 22.5311 21.0567ZM24.8847 23.41C24.3997 23.41 24.0058 23.0164 24.0058 22.5311C24.0058 22.0461 24.3997 21.6522 24.8847 21.6522C25.3699 21.6522 25.7636 22.0461 25.7636 22.5311C25.7636 23.0164 25.3699 23.41 24.8847 23.41Z" fill="#E3FF04"/>
</g>
<defs>
<clipPath id="clip0_311_1099">
<rect width="30" height="30" fill="white"/>
</clipPath>
</defs>
</svg>
