<svg width="30" height="30" viewBox="0 0 30 30" fill="none" xmlns="http://www.w3.org/2000/svg">
<g clip-path="url(#clip0_311_754)">
<path d="M26.0879 6.19263C26.1019 6.30226 26.1099 6.41396 26.1099 6.52725V17.8242C26.1099 17.9366 26.1019 18.0471 26.0881 18.1556C28.3891 17.1455 30.0004 14.8455 30.0004 12.1758V12.1749C30.0004 9.49493 28.3911 7.19902 26.0879 6.19263Z" fill="#E3FF04"/>
<path d="M23.4728 5.64835H6.52734C6.04211 5.64835 5.64844 6.04202 5.64844 6.52725V12.2333C7.6214 11.0934 9.87566 10.4807 12.1759 10.4807C15.2205 10.4807 18.1848 11.5537 20.5223 13.502L22.5445 15.1875H23.4728C23.7809 15.1875 24.0766 15.241 24.3517 15.3387V6.52725C24.3517 6.04202 23.9581 5.64835 23.4728 5.64835ZM21.715 10.2306H21.5273V10.418C21.5273 10.9035 21.1339 11.2969 20.6484 11.2969C20.1632 11.2969 19.7695 10.9035 19.7695 10.418V10.2306H19.5821C19.0966 10.2306 18.7032 9.83711 18.7032 9.35165C18.7032 8.8662 19.0966 8.47275 19.5821 8.47275H19.7695V8.28529C19.7695 7.79983 20.1632 7.40639 20.6484 7.40639C21.1339 7.40639 21.5273 7.79983 21.5273 8.28529V8.47275H21.715C22.2003 8.47275 22.5939 8.8662 22.5939 9.35165C22.5939 9.83711 22.2003 10.2306 21.715 10.2306Z" fill="#E3FF04"/>
<path d="M23.4728 16.9453H17.8242C17.3388 16.9453 16.9453 17.3387 16.9453 17.8242V29.1211C16.9453 29.6065 17.3388 30 17.8242 30H23.4728C23.958 30 24.3517 29.6065 24.3517 29.1211V17.8242C24.3517 17.3387 23.958 16.9453 23.4728 16.9453Z" fill="#E3FF04"/>
<path d="M15.3387 16.9453H0.878906C0.393448 16.9453 0 17.3387 0 17.8242V29.1211C0 29.6065 0.393448 30 0.878906 30H15.3387C15.241 29.7249 15.1875 29.4292 15.1875 29.1211V17.8242C15.1875 17.5161 15.241 17.2204 15.3387 16.9453ZM8.47275 22.5311C8.47275 23.0166 8.07907 23.41 7.59384 23.41C7.10838 23.41 6.71494 23.0166 6.71494 22.5311V21.59C6.71494 21.1045 7.10838 20.711 7.59384 20.711C8.07907 20.711 8.47275 21.1045 8.47275 21.59V22.5311Z" fill="#E3FF04"/>
<path d="M19.3971 14.8524C17.3745 13.1666 14.8098 12.2385 12.1761 12.2385C9.54236 12.2385 6.97751 13.1666 4.95488 14.8524L4.55273 15.1874H19.7992L19.3971 14.8524Z" fill="#E3FF04"/>
<path d="M10.6387 2.82417H10.8261V3.01163C10.8261 3.49709 11.2196 3.89053 11.705 3.89053C12.1905 3.89053 12.5839 3.49709 12.5839 3.01163V2.82417H12.7714C13.2569 2.82417 13.6503 2.43072 13.6503 1.94527C13.6503 1.45981 13.2569 1.06636 12.7714 1.06636H12.5839V0.878906C12.5839 0.393448 12.1905 0 11.705 0C11.2196 0 10.8261 0.393448 10.8261 0.878906V1.06636H10.6387C10.1532 1.06636 9.75977 1.45981 9.75977 1.94527C9.75977 2.43072 10.1532 2.82417 10.6387 2.82417Z" fill="#E3FF04"/>
<path d="M0.878906 12.5839H1.06636V12.7716C1.06636 13.2568 1.45981 13.6505 1.94527 13.6505C2.43072 13.6505 2.82417 13.2568 2.82417 12.7716V12.5839H3.01163C3.49709 12.5839 3.89053 12.1905 3.89053 11.705C3.89053 11.2198 3.49709 10.8261 3.01163 10.8261H2.82417V10.6386C2.82417 10.1532 2.43072 9.75974 1.94527 9.75974C1.45981 9.75974 1.06636 10.1532 1.06636 10.6386V10.8261H0.878906C0.393448 10.8261 0 11.2198 0 11.705C0 12.1905 0.393448 12.5839 0.878906 12.5839Z" fill="#E3FF04"/>
</g>
<defs>
<clipPath id="clip0_311_754">
<rect width="30" height="30" fill="white"/>
</clipPath>
</defs>
</svg>
